<svg width="351" height="297" viewBox="0 0 351 297" fill="none" xmlns="http://www.w3.org/2000/svg">
<path d="M351 189.889C351 223.026 283.21 252.389 178 252.389C72.7898 252.389 0 233.026 0 199.889C0 166.752 72.7898 132.389 178 132.389C283.21 132.389 348 162.389 351 189.889Z" fill="#5DADFC"/>
<path d="M287.525 204.566C287.525 263.542 235.355 297 171 297C106.645 297 54.4747 263.542 54.4747 204.566C54.4747 145.589 106.645 97.7793 171 97.7793C235.355 97.7793 287.525 145.589 287.525 204.566Z" fill="#242B35"/>
<path d="M161.603 197.953C161.603 207.26 147.579 193.272 130.279 193.272C112.979 193.272 98.9548 207.26 98.9548 197.953C98.9548 188.646 112.979 173.584 130.279 173.584C147.579 173.584 161.603 188.646 161.603 197.953Z" fill="#5DADFC"/>
<path d="M247.431 197.953C247.431 207.26 233.406 193.272 216.107 193.272C198.807 193.272 184.783 207.26 184.783 197.953C184.783 188.646 198.807 173.584 216.107 173.584C233.406 173.584 247.431 188.646 247.431 197.953Z" fill="#5DADFC"/>
<path d="M86.3927 118.509C47.1927 142.509 3.00005 182.888 4.50005 185.388C116.9 81.3879 300.107 170.267 351 189.888C349.285 173.961 328.483 156.464 301.786 141.365C298.049 139.251 294.884 135.914 292.123 131.783C261.278 85.6384 220.459 52.7084 168.036 34.4702C-49.5062 -41.2144 29.086 24.5602 79.4772 71.6052C99.54 90.3357 108.316 101.995 86.3927 118.509Z" fill="#0B92F9"/>
</svg>

